<svg width="1920" height="1080" viewBox="0 0 1920 1080" fill="none" xmlns="http://www.w3.org/2000/svg">
<rect width="1920" height="1080" fill="white"/>
<path d="M1105.45 598.091V423.545C1105.45 415.545 1098.91 409 1090.91 409H829.091C821.091 409 814.545 415.545 814.545 423.545V598.091C806.545 598.091 800 604.636 800 612.636V627.182C800 651.182 819.636 670.818 843.636 670.818H1076.36C1100.36 670.818 1120 651.182 1120 627.182V612.636C1120 604.636 1113.45 598.091 1105.45 598.091ZM843.636 438.091H1076.36V598.091H843.636V438.091ZM1076.36 641.727H843.636C835.636 641.727 829.091 635.182 829.091 627.182H1090.91C1090.91 635.182 1084.36 641.727 1076.36 641.727Z" fill="#EF233C"/>
<path d="M996.437 477.91L919.915 554.432L940.486 575.002L1017.01 498.481L996.437 477.91Z" fill="#EF233C"/>
<path d="M946.118 461.075L903.126 504.067L923.697 524.638L966.689 481.646L946.118 461.075Z" fill="#EF233C"/>
<path d="M1171.79 312.804L1183.11 307.539C1186.24 306.085 1189.3 307.681 1189.94 311.021L1196.07 342.866L1228.43 327.815C1234.66 324.922 1240.83 328.049 1242.14 334.797L1249.6 373.507C1250.92 380.255 1246.87 388.175 1240.65 391.068L1207.09 406.673L1185.38 406.057C1181.95 405.96 1176.6 407.083 1173.47 408.537L1167.83 411.162L1152 377.129L1153.19 376.575C1159.41 373.682 1165.22 365.728 1166.06 358.89L1171.79 312.804Z" fill="#EF233C"/>
<path d="M1196.27 435.342L1205.24 436.987C1207.71 437.441 1208.86 439.683 1207.83 441.943L1198.04 463.489L1223.66 468.192C1228.59 469.096 1230.94 473.562 1228.88 478.136L1216.97 504.331C1214.91 508.905 1209.16 511.911 1204.23 511.007L1177.66 506.131L1165 496.601C1162.99 495.092 1159.33 493.502 1156.86 493.048L1152.39 492.228L1157.34 465.284L1158.28 465.457C1163.2 466.361 1170.02 464.079 1173.4 460.359L1196.27 435.342Z" fill="#EF233C"/>
</svg>
